{"accessors":[{"bufferView":0,"byteOffset":0,"componentType":5126,"count":201,"max":[8.5,0.5,4.75],"min":[-8.5,-0.5,-4.75],"normalized":false,"type":"VEC3"},{"bufferView":1,"byteOffset":0,"componentType":5126,"count":201,"max":[0.000244,0,0.000076,-1],"min":[-1,-1,-1,-1],"normalized":false,"type":"VEC4"},{"bufferView":2,"byteOffset":0,"componentType":5126,"count":201,"max":[1,1,1],"min":[-1,-1,-1],"normalized":false,"type":"VEC3"},{"bufferView":3,"byteOffset":0,"componentType":5126,"count":201,"max":[1,1],"min":[0,0],"normalized":false,"type":"VEC2"},{"bufferView":4,"byteOffset":0,"componentType":5125,"count":201,"max":[200],"min":[0],"normalized":false,"type":"SCALAR"},{"bufferView":5,"byteOffset":0,"componentType":5126,"count":1965,"max":[8.75,4.75,5],"min":[-8.75,-0.5,-5.25],"normalized":false,"type":"VEC3"},{"bufferView":6,"byteOffset":0,"componentType":5126,"count":1965,"max":[1,0.500049,1,1],"min":[-1,-1,-1,-1],"normalized":false,"type":"VEC4"},{"bufferView":7,"byteOffset":0,"componentType":5126,"count":1965,"max":[1,1,1],"min":[-1,-1,-1],"normalized":false,"type":"VEC3"},{"bufferView":8,"byteOffset":0,"componentType":5126,"count":1965,"max":[1,1],"min":[0,0],"normalized":false,"type":"VEC2"},{"bufferView":9,"byteOffset":0,"componentType":5125,"count":1965,"max":[1964],"min":[0],"normalized":false,"type":"SCALAR"},{"bufferView":10,"byteOffset":0,"componentType":5126,"count":396,"max":[9.16667,4.25,24.700001],"min":[-9.23334,-8.35,-4.875],"normalized":false,"type":"VEC3"},{"bufferView":11,"byteOffset":0,"componentType":5126,"count":396,"max":[0.000122,0.000046,0.000932,1],"min":[-1,-1,-1,1],"normalized":false,"type":"VEC4"},{"bufferView":12,"byteOffset":0,"componentType":5126,"count":396,"max":[1,1,1],"min":[-1,-1,-1],"normalized":false,"type":"VEC3"},{"bufferView":13,"byteOffset":0,"componentType":5126,"count":396,"max":[1,1],"min":[0,0],"normalized":false,"type":"VEC2"},{"bufferView":14,"byteOffset":0,"componentType":5125,"count":396,"max":[395],"min":[0],"normalized":false,"type":"SCALAR"},{"bufferView":15,"byteOffset":0,"componentType":5126,"count":96,"max":[1,13,1],"min":[-1,-13,-1],"normalized":false,"type":"VEC3"},{"bufferView":16,"byteOffset":0,"componentType":5126,"count":96,"max":[1,0.000065,0.990607,1],"min":[-0.990612,-0.000022,-0.99061,-1],"normalized":false,"type":"VEC4"},{"bufferView":17,"byteOffset":0,"componentType":5126,"count":96,"max":[0.990607,1,0.990607],"min":[-0.990607,-1,-0.990599],"normalized":false,"type":"VEC3"},{"bufferView":18,"byteOffset":0,"componentType":5126,"count":96,"max":[1,1],"min":[0,0],"normalized":false,"type":"VEC2"},{"bufferView":19,"byteOffset":0,"componentType":5125,"count":96,"max":[95],"min":[0],"normalized":false,"type":"SCALAR"},{"bufferView":20,"byteOffset":0,"componentType":5126,"count":768,"max":[-1.58334,7,4.76667],"min":[-14.0833,-10.6,-4.75],"normalized":false,"type":"VEC3"},{"bufferView":21,"byteOffset":0,"componentType":5126,"count":768,"max":[1,1,1,1],"min":[-1,-0.998445,-0.998669,-1],"normalized":false,"type":"VEC4"},{"bufferView":22,"byteOffset":0,"componentType":5126,"count":768,"max":[1,1,1],"min":[-1,-1,-1],"normalized":false,"type":"VEC3"},{"bufferView":23,"byteOffset":0,"componentType":5126,"count":768,"max":[1,1],"min":[0,0],"normalized":false,"type":"VEC2"},{"bufferView":24,"byteOffset":0,"componentType":5125,"count":768,"max":[767],"min":[0],"normalized":false,"type":"SCALAR"},{"bufferView":25,"byteOffset":0,"componentType":5126,"count":96,"max":[4,7.5,4],"min":[-4,-7.5,-4],"normalized":false,"type":"VEC3"},{"bufferView":26,"byteOffset":0,"componentType":5126,"count":96,"max":[1,0.000065,0.990607,1],"min":[-0.990612,-0.000022,-0.99061,-1],"normalized":false,"type":"VEC4"},{"bufferView":27,"byteOffset":0,"componentType":5126,"count":96,"max":[0.990607,1,0.990607],"min":[-0.990607,-1,-0.990599],"normalized":false,"type":"VEC3"},{"bufferView":28,"byteOffset":0,"componentType":5126,"count":96,"max":[1,1],"min":[0,0],"normalized":false,"type":"VEC2"},{"bufferView":29,"byteOffset":0,"componentType":5125,"count":96,"max":[95],"min":[0],"normalized":false,"type":"SCALAR"},{"bufferView":30,"byteOffset":0,"componentType":5126,"count":192,"max":[1,0.218224,7.725],"min":[-5.425445,-2.684884,-7.725],"normalized":false,"type":"VEC3"},{"bufferView":31,"byteOffset":0,"componentType":5126,"count":192,"max":[0.500015,0.000031,0.249399,-1],"min":[-1,-1,-1,-1],"normalized":false,"type":"VEC4"},{"bufferView":32,"byteOffset":0,"componentType":5126,"count":192,"max":[1,1,1],"min":[-1,-1,-1],"normalized":false,"type":"VEC3"},{"bufferView":33,"byteOffset":0,"componentType":5126,"count":192,"max":[1,1],"min":[0,0],"normalized":false,"type":"VEC2"},{"bufferView":34,"byteOffset":0,"componentType":5125,"count":192,"max":[191],"min":[0],"normalized":false,"type":"SCALAR"}],"asset":{"generator":"Godot Engine v4.2.stable.official@46dc277917a93cbf601bbcf0d27d00f6feeec0d5","version":"2.0"},"bufferViews":[{"buffer":0,"byteLength":2412,"byteOffset":0},{"buffer":0,"byteLength":3216,"byteOffset":2412},{"buffer":0,"byteLength":2412,"byteOffset":5628},{"buffer":0,"byteLength":1608,"byteOffset":8040},{"buffer":0,"byteLength":804,"byteOffset":9648},{"buffer":0,"byteLength":23580,"byteOffset":10452},{"buffer":0,"byteLength":31440,"byteOffset":34032},{"buffer":0,"byteLength":23580,"byteOffset":65472},{"buffer":0,"byteLength":15720,"byteOffset":89052},{"buffer":0,"byteLength":7860,"byteOffset":104772},{"buffer":0,"byteLength":4752,"byteOffset":112632},{"buffer":0,"byteLength":6336,"byteOffset":117384},{"buffer":0,"byteLength":4752,"byteOffset":123720},{"buffer":0,"byteLength":3168,"byteOffset":128472},{"buffer":0,"byteLength":1584,"byteOffset":131640},{"buffer":0,"byteLength":1152,"byteOffset":133224},{"buffer":0,"byteLength":1536,"byteOffset":134376},{"buffer":0,"byteLength":1152,"byteOffset":135912},{"buffer":0,"byteLength":768,"byteOffset":137064},{"buffer":0,"byteLength":384,"byteOffset":137832},{"buffer":0,"byteLength":9216,"byteOffset":138216},{"buffer":0,"byteLength":12288,"byteOffset":147432},{"buffer":0,"byteLength":9216,"byteOffset":159720},{"buffer":0,"byteLength":6144,"byteOffset":168936},{"buffer":0,"byteLength":3072,"byteOffset":175080},{"buffer":0,"byteLength":1152,"byteOffset":178152},{"buffer":0,"byteLength":1536,"byteOffset":179304},{"buffer":0,"byteLength":1152,"byteOffset":180840},{"buffer":0,"byteLength":768,"byteOffset":181992},{"buffer":0,"byteLength":384,"byteOffset":182760},{"buffer":0,"byteLength":2304,"byteOffset":183144},{"buffer":0,"byteLength":3072,"byteOffset":185448},{"buffer":0,"byteLength":2304,"byteOffset":188520},{"buffer":0,"byteLength":1536,"byteOffset":190824},{"buffer":0,"byteLength":768,"byteOffset":192360}],"buffers":[{"byteLength":193128,"uri":"test_environment0.bin"}],"extensions":{"KHR_lights_punctual":{"lights":[{"color":[1,1,0.721569001674652],"intensity":1,"range":16.7080001831055,"type":"point"}]}},"extensionsRequired":["KHR_texture_transform"],"extensionsUsed":["GODOT_single_root","KHR_lights_punctual","KHR_texture_transform"],"images":[{"uri":"textures%2F_albedo000.png"},{"uri":"textures%2F_albedo002.png"}],"materials":[{"extensions":{},"pbrMetallicRoughness":{"baseColorFactor":[0.155926778912544,0.155926778912544,0.155926778912544,1],"baseColorTexture":{"extensions":{"KHR_texture_transform":{"scale":[16,16]}},"index":0},"metallicFactor":0,"roughnessFactor":1}},{"extensions":{},"pbrMetallicRoughness":{"baseColorFactor":[0.99999988079071,0.99999988079071,0.99999988079071,1],"metallicFactor":0,"roughnessFactor":1}},{"extensions":{},"pbrMetallicRoughness":{"baseColorFactor":[0.99999988079071,0.99999988079071,0.99999988079071,1],"metallicFactor":0,"roughnessFactor":1}},{"emissiveFactor":[0,0.876221776008606,0.999999940395355],"extensions":{},"pbrMetallicRoughness":{"baseColorFactor":[0,0.291771054267883,0.99999988079071,1],"baseColorTexture":{"extensions":{"KHR_texture_transform":{"scale":[16,16]}},"index":1},"metallicFactor":0,"roughnessFactor":1}},{"extensions":{},"pbrMetallicRoughness":{"baseColorFactor":[0.99999988079071,0.99999988079071,0.99999988079071,1],"metallicFactor":0,"roughnessFactor":1}},{"extensions":{},"pbrMetallicRoughness":{"baseColorFactor":[0.99999988079071,0.99999988079071,0.99999988079071,1],"metallicFactor":0,"roughnessFactor":1}}],"meshes":[{"extras":{"targetNames":[]},"primitives":[{"attributes":{"NORMAL":2,"POSITION":0,"TANGENT":1,"TEXCOORD_0":3},"indices":4,"material":0,"mode":4},{"attributes":{"NORMAL":7,"POSITION":5,"TANGENT":6,"TEXCOORD_0":8},"indices":9,"material":1,"mode":4}]},{"extras":{"targetNames":[]},"primitives":[{"attributes":{"NORMAL":12,"POSITION":10,"TANGENT":11,"TEXCOORD_0":13},"indices":14,"material":2,"mode":4}]},{"extras":{"targetNames":[]},"primitives":[{"attributes":{"NORMAL":17,"POSITION":15,"TANGENT":16,"TEXCOORD_0":18},"indices":19,"material":3,"mode":4},{"attributes":{"NORMAL":22,"POSITION":20,"TANGENT":21,"TEXCOORD_0":23},"indices":24,"material":0,"mode":4}]},{"extras":{"targetNames":[]},"primitives":[{"attributes":{"NORMAL":27,"POSITION":25,"TANGENT":26,"TEXCOORD_0":28},"indices":29,"material":4,"mode":4}]},{"extras":{"targetNames":[]},"primitives":[{"attributes":{"NORMAL":32,"POSITION":30,"TANGENT":31,"TEXCOORD_0":33},"indices":34,"material":5,"mode":4}]}],"nodes":[{"children":[1,15,20,21,31,32],"extensions":{},"name":"TestEnvironment","scale":[0.75,0.75,0.75]},{"children":[2,13,14],"extensions":{},"mesh":0,"name":"Ground2","translation":[0,-0.5,0]},{"children":[3,4,5,6,7,8,9,10,11,12],"extensions":{},"name":"Platform","translation":[0,0.75,-2.75]},{"extensions":{},"name":"Ramp","rotation":[0.258819162845612,0,0,0.965925812721252],"translation":[5.83333015441895,0.625,1.78348994255066]},{"extensions":{},"name":"Ramp2","rotation":[0.258819162845612,0,0,0.965925812721252],"translation":[-5.66666984558105,0.625,1.78348994255066]},{"extensions":{},"name":"Rail","translation":[0,0.75,2.125]},{"extensions":{},"name":"Box1","rotation":[0,0.70710676908493,0,0.70710676908493],"translation":[-8.25,1.75,-0.16666699945927]},{"extensions":{},"name":"Box2","translation":[-5.75,1.75,-2]},{"extensions":{},"name":"Box3","translation":[-2.75,1.75,-2]},{"extensions":{},"name":"Box4","translation":[0.25,1.75,-2]},{"extensions":{},"name":"Box5","translation":[3.25,1.75,-2]},{"extensions":{},"name":"Box6","translation":[6.25,1.75,-2]},{"extensions":{},"name":"Box7","rotation":[0,-0.70710676908493,0,0.70710676908493],"translation":[8.25,1.75,-0.16699999570847]},{"extensions":{},"name":"Box12","rotation":[0,1,0,-0.0000000437114],"translation":[3.08332991600037,1.75,4.5]},{"extensions":{},"name":"Box22","rotation":[0,1,0,-0.0000000437114],"translation":[0.0833299979567528,1.75,4.5]},{"children":[16,17,18,19],"extensions":{},"mesh":1,"name":"Walls2","translation":[0,3.25,-0.125]},{"extensions":{},"name":"Window","translation":[-8.7333402633667,-1.18333005905151,2.20000004768372]},{"extensions":{},"name":"Window2","translation":[8.66666984558105,-1.43333005905151,2.20000004768372]},{"extensions":{},"name":"Window3","translation":[-5,-1.18333005905151,5.03332996368408]},{"extensions":{},"name":"CSGBox3D","translation":[-0.1166670024395,-2.84999990463257,14.9499998092651]},{"extensions":{"KHR_lights_punctual":{"light":0}},"name":"OmniLight3D","scale":[1.33333003520966,1.33333003520966,1.33333003520966],"translation":[0,5.44533014297485,0]},{"children":[22,23,24,25,26,27,29],"extensions":{},"mesh":2,"name":"CSGCylinder3D22","rotation":[0.70710676908493,0,0,0.70710676908493],"translation":[5.33333015441895,-2,15.3332996368408]},{"extensions":{},"name":"Box13","rotation":[0.5,-0.5,0.5,-0.5],"translation":[-13.5832996368408,5.75,1.16666996479034]},{"extensions":{},"name":"Box23","rotation":[0.5,-0.5,0.5,-0.5],"translation":[-13.5832996368408,2.41667008399963,1.16666996479034]},{"extensions":{},"name":"Box32","rotation":[0.5,-0.5,0.5,-0.5],"translation":[-13.5832996368408,-0.91666400432587,1.16666996479034]},{"extensions":{},"name":"Box42","rotation":[0.5,-0.5,0.5,-0.5],"translation":[-13.5832996368408,-4.25,1.16666996479034]},{"extensions":{},"name":"Box52","rotation":[0.5,-0.5,0.5,-0.5],"translation":[-13.5832996368408,-7.58333015441895,1.16666996479034]},{"children":[28],"extensions":{},"name":"CSGCylinder3D","translation":[-5.26667022705078,-9.60000038146973,-4]},{"extensions":{},"name":"CSGCylinder3D3","rotation":[0.70710676908493,0,0,0.70710676908493],"translation":[0,1,4.06666994094849]},{"children":[30],"extensions":{},"name":"CSGCylinder3D32","translation":[-2.33333992958069,-9.60000038146973,-4]},{"extensions":{},"name":"CSGCylinder3D33","rotation":[0.70710676908493,0,0,0.70710676908493],"translation":[0,1,4.06666994094849]},{"extensions":{},"mesh":3,"name":"CSGCylinder3D5","rotation":[0.70710676908493,0,0,0.70710676908493],"translation":[5.33333015441895,-2,16]},{"children":[33],"extensions":{},"mesh":4,"name":"CSGBox3D3","translation":[0.0333333015441895,-2.99166989326477,16.3582992553711]},{"extensions":{},"name":"CSGBox3D4","rotation":[0,0,0.258819162845612,0.965925812721252],"translation":[-3.08628010749817,-1.2333300113678,6.13333988189697]}],"samplers":[{"magFilter":9729,"minFilter":9987,"wrapS":10497,"wrapT":10497}],"scene":0,"scenes":[{"nodes":[0]}],"textures":[{"sampler":0,"source":0},{"sampler":0,"source":1}]}